<svg width="85" height="55" viewBox="0 0 85 55" fill="none" xmlns="http://www.w3.org/2000/svg">
<g clip-path="url(#clip0_7_2)">
<path d="M84.9057 19.561C84.9145 19.4846 84.9145 19.4073 84.9057 19.3308C84.9141 19.2686 84.9141 19.205 84.9057 19.1426L84.2766 13.7661C84.1859 13.1228 83.9432 12.5216 83.5759 12.0297L83.468 11.8833L83.2704 11.6531L72.3807 0.732737L72.6861 1.08841C72.4362 0.74029 72.1225 0.461842 71.768 0.273574C71.4135 0.0853056 71.0271 -0.00799796 70.6376 0.00054645H67.3311C66.7934 -0.0118554 66.268 0.187157 65.8396 0.565403C65.3897 0.189435 64.848 -0.00855908 64.2942 0.00054645H60.9877C60.554 -0.0076445 60.1263 0.117651 59.7476 0.363785C59.3689 0.609918 59.0528 0.96815 58.8314 1.4022C58.4898 2.02214 58.3615 2.76908 58.4719 3.49423L58.8853 6.88331C58.6114 6.7026 58.3015 6.60884 57.9867 6.61137H41.9756C41.4011 6.61556 40.8399 6.81158 40.3582 7.17619C39.8925 7.51557 39.5187 8.00152 39.2801 8.57784L38.0401 7.34356C37.5521 6.81788 36.908 6.53296 36.2432 6.5486H11.1212C10.5448 6.56083 9.98106 6.74832 9.48604 7.09252C8.80879 7.554 8.31247 8.30435 8.10232 9.18455L0.123689 40.2512C-0.025389 40.7631 -0.0400542 41.3152 0.0815717 41.8368C0.203197 42.3584 0.455606 42.8262 0.806552 43.1801C0.897998 43.2703 0.994016 43.3542 1.09408 43.431C1.09408 43.431 0.932323 43.3055 0.842473 43.201L11.7323 54.1423C12.1929 54.636 12.7952 54.912 13.4213 54.9163H38.741C39.3192 54.8988 39.8833 54.704 40.3763 54.3514C40.6551 54.174 40.9045 53.9403 41.113 53.661L41.2029 53.5146L41.3466 53.3055L41.4544 53.0753L42.6405 54.2678C43.0945 54.7419 43.6837 55.0028 44.2937 55H69.6671C70.2448 54.9776 70.8078 54.7832 71.3024 54.4352C71.5749 54.2469 71.8229 54.0144 72.0392 53.7448L72.129 53.5983L72.2727 53.3892C72.3492 53.2568 72.4154 53.1168 72.4704 52.9706C72.5291 52.8439 72.5772 52.7108 72.6142 52.5733L79.892 24.2054V23.9543C79.9009 23.8569 79.9009 23.7588 79.892 23.6614V23.4732C79.9007 23.4107 79.9007 23.3472 79.892 23.2848C79.9001 23.1525 79.9001 23.0197 79.892 22.8873H82.2281C82.4313 22.909 82.6358 22.909 82.839 22.8873H83.0008C83.1323 22.8416 83.259 22.7784 83.3782 22.6991H83.5579L83.8813 22.4062L84.0251 22.2806L84.2766 21.904V21.7786L84.4564 21.4229C84.4463 21.3538 84.4463 21.2829 84.4564 21.2138C84.4468 21.1798 84.4468 21.1431 84.4564 21.1091C84.4946 20.9865 84.5246 20.8605 84.5462 20.7325C84.5378 20.6913 84.5378 20.6482 84.5462 20.607C84.5375 20.5447 84.5375 20.481 84.5462 20.4188C84.5462 20.4188 84.9057 19.6028 84.9057 19.561Z" fill="black"/>
<path d="M36.9799 8.93358C37.0753 9.03401 37.1419 9.16607 37.1708 9.31195C37.1998 9.45784 37.1896 9.61054 37.1417 9.74947L29.181 40.7952C29.0808 41.1341 28.8757 41.4175 28.606 41.5902C28.3865 41.7611 28.1325 41.862 27.8691 41.8831H2.5676C2.35152 41.871 2.14681 41.7668 1.99255 41.5902C1.90079 41.4913 1.83639 41.3629 1.80757 41.2214C1.77876 41.0798 1.78688 40.9314 1.83083 40.7952L9.80946 9.74947C9.90139 9.40624 10.1 9.11529 10.3665 8.93358C10.5896 8.77493 10.8424 8.68161 11.1033 8.66161H36.4048C36.6192 8.66401 36.8248 8.76125 36.9799 8.93358ZM23.772 34.54L28.534 16.0046H15.2005L10.4564 34.54H23.772ZM61.1314 9.24737C61.2177 9.36416 61.3256 9.45678 61.447 9.51836C61.5683 9.57993 61.7 9.60887 61.8323 9.60301H65.1207C65.246 9.60444 65.3694 9.5687 65.4795 9.49915C65.5895 9.4296 65.6825 9.32854 65.7497 9.20553C65.8081 9.10945 65.8493 9.00067 65.8709 8.88566C65.8925 8.77067 65.894 8.6518 65.8754 8.5361L65.2285 3.01313C65.167 2.75752 65.0564 2.52149 64.9052 2.32276C64.8187 2.20597 64.7109 2.11335 64.5896 2.05178C64.4682 1.9902 64.3365 1.96127 64.2043 1.96712H60.9158C60.7906 1.9657 60.6671 2.00145 60.5571 2.071C60.447 2.14055 60.354 2.24159 60.2869 2.36462C60.161 2.65749 60.1071 2.84577 60.161 3.01313L60.826 8.5361C60.86 8.80502 60.9671 9.05421 61.1314 9.24737ZM71.572 2.97129C71.5103 2.71567 71.3997 2.47963 71.2485 2.28092C71.1658 2.16455 71.0611 2.07196 70.9427 2.01028C70.8243 1.94861 70.6952 1.91951 70.5656 1.92528H67.2591C67.136 1.92119 67.0142 1.95598 66.9066 2.02595C66.7991 2.09593 66.7098 2.1985 66.6482 2.32276C66.5286 2.50836 66.4769 2.74149 66.5045 2.97129L67.1693 8.49424C67.211 8.76033 67.3169 9.00706 67.4748 9.20553C67.5627 9.32004 67.6708 9.41111 67.7918 9.47249C67.9128 9.53387 68.0436 9.56412 68.1756 9.56116H71.4821C71.605 9.56306 71.726 9.52735 71.8332 9.45758C71.9405 9.38781 72.0301 9.28649 72.0931 9.1637C72.1556 9.07011 72.1992 8.96137 72.2211 8.84554C72.2429 8.72971 72.2421 8.60969 72.2188 8.49424L71.572 2.97129ZM58.2382 11.3394L57.9148 8.61977H41.9755C41.7253 8.63583 41.4832 8.72975 41.2747 8.89173C41.1423 8.97575 41.0271 9.09222 40.9371 9.23307C40.8473 9.37394 40.7846 9.53583 40.7536 9.70762L39.4238 14.8958C39.3707 15.0255 39.3526 15.171 39.3718 15.3129C39.3911 15.4548 39.4468 15.5865 39.5316 15.6908C39.6831 15.8567 39.8809 15.9533 40.0887 15.9628H59.4603L54.6982 34.4982H35.3806C35.1315 34.5048 34.8889 34.5917 34.6798 34.7492C34.4257 34.9371 34.24 35.2277 34.1587 35.5651L32.8109 40.7534C32.7669 40.8865 32.7554 41.0311 32.7775 41.1714C32.7998 41.3118 32.8548 41.4421 32.9366 41.5483C33.0835 41.7252 33.2828 41.83 33.4937 41.8411H58.8672C59.1296 41.8149 59.3826 41.7144 59.6039 41.5483C59.8693 41.3747 60.0683 41.0908 60.161 40.7534L67.4568 12.3854H59.2446C59.1143 12.3884 58.9849 12.3602 58.8644 12.3027C58.7438 12.2451 58.6347 12.1593 58.5438 12.0507C58.3952 11.861 58.2901 11.6307 58.2382 11.3812V11.3394Z" fill="white"/>
</g>
<defs>
<clipPath id="clip0_7_2">
<rect width="84.9123" height="55" fill="white"/>
</clipPath>
</defs>
</svg>
