<svg width="314" height="312" viewBox="0 0 314 312" fill="none" xmlns="http://www.w3.org/2000/svg">
<g clip-path="url(#clip0_7_51)">
<path d="M157.001 0L314 117.076V194.893L157.001 312L0 194.893V117.077L157.001 0Z" fill="#A5B4FC"/>
<path fill-rule="evenodd" clip-rule="evenodd" d="M0 117.076L157 0L314 117.076V194.893L157 312L0 194.893V117.076ZM157 262.322L280.695 170.057V141.922L280.689 141.917L157 234.154L33.3108 141.917L33.3047 141.922V170.057L157 262.322ZM157 191.136L251.839 120.413L228.736 103.192L157 156.687L85.2642 103.192L62.1608 120.413L157 191.136ZM157 113.669L199.886 81.6886L157 49.7224L114.114 81.6886L157 113.669Z" fill="#4F46E5"/>
<path d="M157.001 0L0 117.077V194.893L157 312L157.001 0Z" fill="#A5B4FC" fill-opacity="0.3"/>
</g>
<defs>
<clipPath id="clip0_7_51">
<rect width="314" height="312" fill="white"/>
</clipPath>
</defs>
</svg>
